<?xml version="1.0" encoding="UTF-8"?>
<svg width="1440px" height="900px" viewBox="0 0 1440 900" version="1.1" xmlns="http://www.w3.org/2000/svg" xmlns:xlink="http://www.w3.org/1999/xlink">
    <title>Rectangle</title>
    <defs>
        <linearGradient x1="116.584909%" y1="10.6147437%" x2="28.1408439%" y2="59.5802345%" id="linearGradient-1">
            <stop stop-color="#000000" offset="0%"></stop>
            <stop stop-color="#636363" offset="22.6404139%"></stop>
            <stop stop-color="#505050" offset="59.5808699%"></stop>
            <stop stop-color="#414141" offset="100%"></stop>
        </linearGradient>
        <linearGradient x1="16.3312812%" y1="113.477973%" x2="104.665253%" y2="-41.4829023%" id="linearGradient-2">
            <stop stop-color="#2A2A2A" offset="0%"></stop>
            <stop stop-color="#3E3E3E" offset="100%"></stop>
        </linearGradient>
        <linearGradient x1="16.3312812%" y1="113.477973%" x2="104.665253%" y2="-41.4829023%" id="linearGradient-3">
            <stop stop-color="#2A2A2A" offset="0%"></stop>
            <stop stop-color="#444444" offset="100%"></stop>
        </linearGradient>
        <linearGradient x1="16.3312812%" y1="113.477973%" x2="104.665253%" y2="-41.4829023%" id="linearGradient-4">
            <stop stop-color="#363535" offset="0%"></stop>
            <stop stop-color="#3E3E3E" offset="100%"></stop>
        </linearGradient>
    </defs>
    <g id="Desktop" stroke="none" stroke-width="1" fill="none" fill-rule="evenodd">
        <g id="Steps-Menu-(B)">
            <g id="Rectangle-2" transform="translate(-1.000000, 0.000000)" fill="url(#linearGradient-1)">
                <rect id="Rectangle" x="0" y="0" width="1441" height="900"></rect>
            </g>
            <rect id="Rectangle" fill="#000000" opacity="0.348679315" x="1" y="0" width="1440" height="950"></rect>
            <text id="Application-Steps" font-family="Helvetica" font-size="30" font-weight="normal" fill="#F4F4F4">
                <tspan x="601" y="178">Application Steps</tspan>
            </text>
            <text id="Select-the-step-you" font-family="Helvetica" font-size="16" font-weight="normal" fill="#8C8C8C">
                <tspan x="588.929688" y="208">Select the step you wish to complete.</tspan>
            </text>
            <g id="Group-8" transform="translate(185.000000, 292.000000)">
                <rect id="Rectangle" stroke="#383838" stroke-width="2" fill="url(#linearGradient-2)" x="1" y="1" width="298" height="386" rx="7"></rect>
                <path d="M0,321 L300,321 L300,381 C300,384.865993 296.865993,388 293,388 L7,388 C3.13400675,388 4.73447626e-16,384.865993 0,381 L0,321 L0,321 Z" id="Rectangle" fill="#404040"></path>
                <rect id="Rectangle-Copy" stroke="#383838" stroke-width="2" fill="url(#linearGradient-3)" x="386" y="1" width="298" height="386" rx="7"></rect>
                <rect id="Rectangle" fill="#2B2B2B" x="41" y="47" width="217" height="9" rx="4.5"></rect>
                <rect id="Rectangle" fill="#E05D5D" x="41" y="47" width="30" height="9" rx="4.5"></rect>
                <rect id="Rectangle-Copy-2" stroke="#383838" stroke-width="2" fill="url(#linearGradient-4)" x="771" y="1" width="298" height="386" rx="7"></rect>
                <g id="Group-7" transform="translate(96.000000, 340.000000)">
                    <polygon id="Path" fill="#C0C0C0" fill-rule="nonzero" points="104 11 104 14 86 14 86 16 104 16 104 19 108 15"></polygon>
                    <text id="COMPLETE" font-family="Helvetica" font-size="20" font-weight="normal" fill="#C8C8C8">
                        <tspan x="0" y="19">COMPLETE</tspan>
                    </text>
                </g>
                <g id="Group-6" transform="translate(910.000000, 180.000000)"></g>
                <text id="Please-complete-your" fill="#D8D8D8" fill-rule="nonzero" font-family="Helvetica" font-size="16" font-weight="normal">
                    <tspan x="40" y="232">Please complete your personal details</tspan>
                    <tspan x="40" y="251">section by clicking complete.</tspan>
                </text>
                <text id="Personal-Details" font-family="Helvetica" font-size="30" font-weight="normal" line-spacing="35" fill="#F4F4F4">
                    <tspan x="40" y="152">Personal </tspan>
                    <tspan x="40" y="187">Details</tspan>
                </text>
                <text id="STEP-1" font-family="Helvetica" font-size="18" font-weight="normal" fill="#C6C6C6">
                    <tspan x="40" y="109">STEP 1</tspan>
                </text>
            </g>
            <g id="Group-6" transform="translate(657.000000, 439.000000)">
                <g id="Group-3" transform="translate(0.000000, 11.000000)">
                    <g id="Group-5" transform="translate(30.000000, 13.000000)"></g>
                </g>
            </g>
            <g id="Group-4" transform="translate(570.000000, 339.000000)">
                <path d="M0,274 L300,274 L300,334 C300,337.865993 296.865993,341 293,341 L7,341 C3.13400675,341 4.73447626e-16,337.865993 0,334 L0,274 L0,274 Z" id="Rectangle-Copy-3" fill="#404040"></path>
                <rect id="Rectangle-Copy-4" fill="#2B2B2B" x="41" y="0" width="217" height="9" rx="4.5"></rect>
                <rect id="Rectangle-Copy-5" fill="#E05D5D" x="41" y="0" width="15" height="9" rx="4.5"></rect>
                <g id="Group-9" transform="translate(96.000000, 293.000000)">
                    <polygon id="Path-Copy" fill="#C0C0C0" fill-rule="nonzero" points="104 11 104 14 86 14 86 16 104 16 104 19 108 15"></polygon>
                    <text id="COMPLETE-Copy" font-family="Helvetica" font-size="20" font-weight="normal" fill="#C8C8C8">
                        <tspan x="0" y="19">COMPLETE</tspan>
                    </text>
                </g>
                <text id="Please-complete-this" font-family="Helvetica" font-size="16" font-weight="normal" fill="#8C8C8C">
                    <tspan x="40" y="185">Please complete this</tspan>
                    <tspan x="40" y="204">section by clicking complete.</tspan>
                </text>
                <text id="More-About-You" font-family="Helvetica" font-size="30" font-weight="normal" line-spacing="35" fill="#F4F4F4">
                    <tspan x="40" y="105">More About</tspan>
                    <tspan x="40" y="140">You</tspan>
                </text>
                <text id="STEP-2" font-family="Helvetica" font-size="18" font-weight="normal" fill="#C6C6C6">
                    <tspan x="40" y="62">STEP 2</tspan>
                </text>
            </g>
            <g id="Group-4-Copy-2" transform="translate(955.000000, 339.000000)">
                <path d="M0,274 L300,274 L300,334 C300,337.865993 296.865993,341 293,341 L7,341 C3.13400675,341 4.73447626e-16,337.865993 0,334 L0,274 L0,274 Z" id="Rectangle-Copy-3" fill="#404040"></path>
                <rect id="Rectangle-Copy-4" fill="#2B2B2B" x="41" y="0" width="217" height="9" rx="4.5"></rect>
                <rect id="Rectangle-Copy-5" fill="#E05D5D" x="41" y="0" width="80" height="9" rx="4.5"></rect>
                <g id="Group-10" transform="translate(96.000000, 293.000000)">
                    <polygon id="Path-Copy" fill="#C0C0C0" fill-rule="nonzero" points="104 11 104 14 86 14 86 16 104 16 104 19 108 15"></polygon>
                    <text id="COMPLETE-Copy" font-family="Helvetica" font-size="20" font-weight="normal" fill="#C8C8C8">
                        <tspan x="0" y="19">COMPLETE</tspan>
                    </text>
                </g>
                <text id="Just-upload-your-cov" font-family="Helvetica" font-size="16" font-weight="normal" fill="#8C8C8C">
                    <tspan x="40" y="185">Just upload your cover letter to </tspan>
                    <tspan x="40" y="204">complete this section.</tspan>
                </text>
                <text id="Files-Upload" font-family="Helvetica" font-size="30" font-weight="normal" line-spacing="35" fill="#F4F4F4">
                    <tspan x="40" y="105">Files</tspan>
                    <tspan x="40" y="140">Upload</tspan>
                </text>
                <text id="STEP-3" font-family="Helvetica" font-size="18" font-weight="normal" fill="#C6C6C6">
                    <tspan x="40" y="62">STEP 3</tspan>
                </text>
            </g>
            <text id="Netsells" font-family="Helvetica" font-size="22" font-weight="normal" fill="#8C8C8C">
                <tspan x="112" y="68">Netsells</tspan>
            </text>
            <g id="Group-2" transform="translate(132.000000, 808.000000)" fill="#A3A3A3" fill-rule="nonzero">
                <g id="icons8-sun">
                    <path d="M11,0 L11,3 L13,3 L13,0 L11,0 Z M4.2226562,2.8085938 L2.8085938,4.2226562 L4.9296875,6.34375 L6.34375,4.9296875 L4.2226562,2.8085938 Z M19.777344,2.8085938 L17.65625,4.9296875 L19.070312,6.34375 L21.191406,4.2226562 L19.777344,2.8085938 Z M12,5 C8.13400675,5 5,8.13400675 5,12 C5,15.8659932 8.13400675,19 12,19 C15.8659932,19 19,15.8659932 19,12 C19,8.13400675 15.8659932,5 12,5 Z M0,11 L0,13 L3,13 L3,11 L0,11 Z M21,11 L21,13 L24,13 L24,11 L21,11 Z M4.9296875,17.65625 L2.8085938,19.777344 L4.2226562,21.191406 L6.34375,19.070312 L4.9296875,17.65625 Z M19.070312,17.65625 L17.65625,19.070312 L19.777344,21.191406 L21.191406,19.777344 L19.070312,17.65625 Z M11,21 L11,24 L13,24 L13,21 L11,21 Z" id="Shape"></path>
                </g>
            </g>
            <g id="Group" transform="translate(80.000000, 810.000000)" fill="#A3A3A3" fill-rule="nonzero">
                <g id="icons8-moon-symbol">
                    <polygon id="Shape" points="10 0 9.871094 0 9.613281 0.007813 9.484375 0.015625 9.359375 0.019531 9.230469 0.03125 9.105469 0.039063 8.980469 0.054688 8.851563 0.0625 8.726563 0.078125 8.601563 0.097656 8.480469 0.117188 8.355469 0.132813 8.230469 0.15625 8.109375 0.179688 7.984375 0.203125 7.863281 0.226563 7.742188 0.257813 7.5 0.3125 7.265625 0.382813 7.144531 0.414063 6.910156 0.484375 6.796875 0.523438 6.675781 0.566406 6.5625 0.609375 6.449219 0.648438 6.222656 0.742188 6.109375 0.785156 5.996094 0.835938 5.886719 0.882813 5.777344 0.9375 5.667969 0.984375 5.449219 1.09375 5.34375 1.148438 5.234375 1.207031 5.128906 1.265625 5.023438 1.328125 4.921875 1.386719 4.816406 1.449219 4.714844 1.511719 4.609375 1.578125 4.511719 1.640625 4.410156 1.710938 4.3125 1.777344 4.210938 1.84375 4.117188 1.914063 4.015625 1.988281 3.921875 2.0625 3.828125 2.132813 3.734375 2.210938 3.546875 2.359375 3.457031 2.4375 3.277344 2.601563 3.1875 2.679688 3.101563 2.765625 3.015625 2.84375 2.84375 3.015625 2.765625 3.101563 2.679688 3.1875 2.601563 3.277344 2.4375 3.457031 2.359375 3.546875 2.210938 3.734375 2.132813 3.828125 2.0625 3.921875 1.988281 4.015625 1.914063 4.117188 1.84375 4.210938 1.777344 4.3125 1.710938 4.410156 1.640625 4.511719 1.578125 4.609375 1.511719 4.714844 1.449219 4.816406 1.386719 4.921875 1.328125 5.023438 1.265625 5.128906 1.207031 5.234375 1.148438 5.34375 1.039063 5.554688 0.984375 5.664063 0.9375 5.773438 0.882813 5.886719 0.835938 5.996094 0.785156 6.109375 0.742188 6.222656 0.648438 6.449219 0.609375 6.5625 0.523438 6.796875 0.484375 6.910156 0.414063 7.144531 0.382813 7.265625 0.3125 7.5 0.257813 7.742188 0.226563 7.863281 0.203125 7.984375 0.179688 8.109375 0.15625 8.230469 0.132813 8.355469 0.117188 8.480469 0.097656 8.601563 0.078125 8.726563 0.0625 8.851563 0.054688 8.980469 0.039063 9.105469 0.03125 9.230469 0.019531 9.359375 0.015625 9.484375 0.007813 9.613281 0 9.871094 0 10.128906 0.007813 10.386719 0.015625 10.515625 0.019531 10.640625 0.03125 10.769531 0.039063 10.894531 0.054688 11.019531 0.0625 11.148438 0.078125 11.273438 0.097656 11.398438 0.117188 11.519531 0.132813 11.644531 0.15625 11.769531 0.179688 11.890625 0.203125 12.015625 0.226563 12.136719 0.257813 12.257813 0.3125 12.5 0.382813 12.734375 0.414063 12.855469 0.484375 13.089844 0.523438 13.203125 0.566406 13.324219 0.609375 13.4375 0.648438 13.550781 0.742188 13.777344 0.785156 13.890625 0.835938 14.003906 0.882813 14.113281 0.9375 14.222656 0.984375 14.332031 1.09375 14.550781 1.148438 14.65625 1.207031 14.765625 1.265625 14.871094 1.328125 14.976563 1.386719 15.078125 1.449219 15.183594 1.511719 15.285156 1.578125 15.390625 1.640625 15.488281 1.710938 15.589844 1.84375 15.785156 1.914063 15.886719 1.988281 15.984375 2.0625 16.078125 2.132813 16.171875 2.210938 16.265625 2.359375 16.453125 2.4375 16.542969 2.601563 16.722656 2.679688 16.8125 2.765625 16.898438 2.84375 16.984375 3.015625 17.15625 3.101563 17.234375 3.1875 17.320313 3.277344 17.402344 3.367188 17.480469 3.457031 17.5625 3.546875 17.640625 3.640625 17.714844 3.734375 17.792969 3.828125 17.863281 4.015625 18.011719 4.117188 18.082031 4.210938 18.15625 4.3125 18.222656 4.410156 18.292969 4.511719 18.359375 4.609375 18.421875 4.714844 18.488281 4.816406 18.550781 4.921875 18.613281 5.023438 18.671875 5.128906 18.734375 5.234375 18.792969 5.34375 18.847656 5.449219 18.90625 5.667969 19.015625 5.777344 19.0625 5.886719 19.113281 5.996094 19.167969 6.335938 19.308594 6.449219 19.347656 6.675781 19.433594 6.796875 19.472656 6.910156 19.515625 7.144531 19.585938 7.265625 19.621094 7.382813 19.652344 7.5 19.6875 7.621094 19.714844 7.742188 19.746094 7.863281 19.769531 7.984375 19.796875 8.109375 19.820313 8.230469 19.84375 8.355469 19.863281 8.480469 19.886719 8.601563 19.902344 8.726563 19.921875 8.851563 19.9375 8.980469 19.949219 9.105469 19.960938 9.230469 19.96875 9.359375 19.980469 9.484375 19.984375 9.613281 19.992188 9.871094 20 10.152344 20 10.300781 19.996094 10.453125 19.988281 10.601563 19.984375 10.75 19.972656 10.902344 19.960938 11.046875 19.945313 11.195313 19.929688 11.34375 19.910156 11.488281 19.890625 11.636719 19.867188 11.777344 19.84375 11.921875 19.8125 12.0625 19.785156 12.207031 19.753906 12.347656 19.722656 12.628906 19.652344 12.769531 19.609375 12.90625 19.570313 13.046875 19.527344 13.183594 19.484375 13.316406 19.4375 13.589844 19.335938 13.71875 19.28125 13.855469 19.230469 14.113281 19.113281 14.246094 19.058594 14.375 18.996094 14.5 18.933594 14.347656 18.855469 14.199219 18.769531 14.046875 18.6875 13.902344 18.601563 13.753906 18.515625 13.609375 18.421875 13.328125 18.234375 13.1875 18.136719 12.914063 17.933594 12.648438 17.722656 12.519531 17.613281 12.390625 17.5 12.265625 17.390625 12.015625 17.15625 11.78125 16.914063 11.660156 16.792969 11.546875 16.667969 11.21875 16.28125 11.113281 16.144531 11.011719 16.011719 10.90625 15.875 10.8125 15.734375 10.714844 15.59375 10.527344 15.3125 10.4375 15.164063 10.347656 15.019531 10.265625 14.871094 10.183594 14.71875 10.105469 14.566406 10.027344 14.417969 9.878906 14.105469 9.8125 13.949219 9.679688 13.628906 9.648438 13.546875 9.621094 13.46875 9.589844 13.386719 9.5625 13.304688 9.53125 13.222656 9.476563 13.058594 9.453125 12.976563 9.425781 12.890625 9.402344 12.808594 9.375 12.726563 9.355469 12.640625 9.328125 12.558594 9.308594 12.472656 9.285156 12.390625 9.265625 12.300781 9.246094 12.21875 9.230469 12.132813 9.210938 12.046875 9.191406 11.957031 9.175781 11.875 9.15625 11.785156 9.144531 11.699219 9.128906 11.609375 9.113281 11.523438 9.105469 11.4375 9.089844 11.347656 9.078125 11.261719 9.066406 11.171875 9.058594 11.082031 9.046875 10.992188 9.039063 10.90625 9.03125 10.8125 9.027344 10.722656 9.019531 10.636719 9.015625 10.546875 9.011719 10.453125 9 10.183594 9 9.816406 9.011719 9.546875 9.015625 9.453125 9.019531 9.363281 9.027344 9.277344 9.03125 9.1875 9.039063 9.09375 9.046875 9.007813 9.058594 8.917969 9.066406 8.828125 9.078125 8.738281 9.089844 8.652344 9.105469 8.5625 9.113281 8.476563 9.128906 8.390625 9.144531 8.300781 9.15625 8.214844 9.175781 8.125 9.191406 8.042969 9.210938 7.953125 9.230469 7.867188 9.246094 7.78125 9.285156 7.609375 9.308594 7.527344 9.328125 7.445313 9.355469 7.359375 9.375 7.273438 9.402344 7.191406 9.425781 7.109375 9.453125 7.023438 9.476563 6.941406 9.53125 6.777344 9.5625 6.695313 9.589844 6.613281 9.621094 6.53125 9.648438 6.453125 9.679688 6.367188 9.8125 6.054688 9.878906 5.894531 9.953125 5.738281 10.027344 5.585938 10.105469 5.429688 10.183594 5.28125 10.265625 5.132813 10.347656 4.980469 10.4375 4.835938 10.527344 4.6875 10.714844 4.40625 10.8125 4.265625 10.90625 4.125 11.011719 3.988281 11.113281 3.851563 11.21875 3.71875 11.4375 3.460938 11.546875 3.335938 11.660156 3.207031 11.78125 3.085938 11.898438 2.960938 12.015625 2.84375 12.265625 2.609375 12.390625 2.5 12.519531 2.386719 12.648438 2.277344 12.914063 2.066406 13.1875 1.863281 13.328125 1.765625 13.609375 1.578125 13.753906 1.484375 13.902344 1.398438 14.046875 1.3125 14.199219 1.226563 14.347656 1.148438 14.5 1.070313 14.375 1.007813 14.246094 0.945313 14.113281 0.882813 13.855469 0.773438 13.71875 0.71875 13.589844 0.664063 13.316406 0.5625 13.183594 0.515625 13.046875 0.472656 12.90625 0.429688 12.769531 0.390625 12.488281 0.3125 12.207031 0.242188 12.0625 0.214844 11.921875 0.1875 11.777344 0.15625 11.636719 0.132813 11.488281 0.109375 11.34375 0.089844 11.195313 0.070313 11.046875 0.054688 10.902344 0.039063 10.75 0.027344 10.601563 0.015625 10.453125 0.007813 10.300781 0.003906 10.152344 0"></polygon>
                </g>
            </g>
            <circle id="Oval" stroke="#303030" stroke-width="2" fill="#E05D5D" cx="80.5" cy="808.5" r="5.5"></circle>
            <g id="Group-9-Copy-3" transform="translate(1319.000000, 56.000000)" fill="#8C8C8C">
                <rect id="Rectangle" x="0" y="0" width="7" height="7"></rect>
                <rect id="Rectangle-Copy-6" x="12" y="0" width="7" height="7"></rect>
                <rect id="Rectangle-Copy-7" x="24" y="0" width="7" height="7"></rect>
            </g>
            <text id="JavaScript-Challenge" font-family="Helvetica" font-size="16" font-weight="normal" fill="#8C8C8C">
                <tspan x="660" y="66">JavaScript Challenge</tspan>
            </text>
        </g>
    </g>
</svg>